<svg xmlns="http://www.w3.org/2000/svg" width="0" height="0" style="position:absolute" aria-hidden="true">
  <defs>
    <symbol id="i-shape" viewBox="0 0 16 16">
      <rect x="2.5" y="3.5" width="11" height="9" rx="1.5" fill="none" stroke="currentColor" stroke-width="1.4"/>
      <circle cx="5" cy="6" r="0.8" fill="currentColor"/>
      <circle cx="11" cy="10" r="0.8" fill="currentColor"/>
    </symbol>
    <symbol id="i-delete" viewBox="0 0 16 16">
      <path d="M3 5h10M6 5V3.5a1 1 0 0 1 1-1h2a1 1 0 0 1 1 1V5M5 5l1 8.5a1 1 0 0 0 1 .9h2a1 1 0 0 0 1-.9L11 5" fill="none" stroke="currentColor" stroke-width="1.3"/>
    </symbol>
    <symbol id="i-offset" viewBox="0 0 16 16">
      <rect x="4" y="4" width="8" height="8" rx="1" fill="none" stroke="currentColor" stroke-width="1.4"/>
      <rect x="1.5" y="1.5" width="13" height="13" rx="1.5" fill="none" stroke="currentColor" stroke-width="1" stroke-dasharray="2 1.5"/>
    </symbol>
    <symbol id="i-chamfer" viewBox="0 0 16 16">
      <path d="M2 14 V6 L6 2 H14 M6 2 L2 6" fill="none" stroke="currentColor" stroke-width="1.4"/>
    </symbol>
    <symbol id="i-output" viewBox="0 0 16 16">
      <path d="M8 11V2M8 2 5 5M8 2l3 3M2 12v1a2 2 0 0 0 2 2h8a2 2 0 0 0 2-2v-1" fill="none" stroke="currentColor" stroke-width="1.4" stroke-linecap="round" stroke-linejoin="round"/>
    </symbol>
    <symbol id="i-pan" viewBox="0 0 16 16">
      <path d="M7 14V8M5 10V5a1 1 0 1 1 2 0v3M7 8V4a1 1 0 1 1 2 0v4M9 8V5a1 1 0 1 1 2 0v3M11 8V6a1 1 0 1 1 2 0v4c0 2-1.5 4-4 4-2 0-3-1-4-2L3 9c0-1 1-1.5 2 0" fill="none" stroke="currentColor" stroke-width="1.3" stroke-linejoin="round"/>
    </symbol>
    <symbol id="i-select" viewBox="0 0 16 16">
      <path d="m3 2 11 5-5 1-1 5-5-11z" fill="none" stroke="currentColor" stroke-width="1.3" stroke-linejoin="round"/>
    </symbol>
    <symbol id="i-fit" viewBox="0 0 16 16">
      <path d="M2 6V2h4M14 6V2h-4M2 10v4h4M14 10v4h-4" fill="none" stroke="currentColor" stroke-width="1.4" stroke-linecap="round" stroke-linejoin="round"/>
    </symbol>
    <symbol id="i-undo" viewBox="0 0 16 16">
      <path d="M3 7h7a3 3 0 0 1 0 6H5M3 7l3-3M3 7l3 3" fill="none" stroke="currentColor" stroke-width="1.3" stroke-linecap="round" stroke-linejoin="round"/>
    </symbol>
    <symbol id="i-redo" viewBox="0 0 16 16">
      <path d="M13 7H6a3 3 0 0 0 0 6h5M13 7l-3-3M13 7l-3 3" fill="none" stroke="currentColor" stroke-width="1.3" stroke-linecap="round" stroke-linejoin="round"/>
    </symbol>
    <symbol id="i-search" viewBox="0 0 16 16">
      <circle cx="7" cy="7" r="4.5" fill="none" stroke="currentColor" stroke-width="1.4"/>
      <path d="m10.4 10.4 3.1 3.1" stroke="currentColor" stroke-width="1.4" stroke-linecap="round"/>
    </symbol>
    <symbol id="i-arrow-right" viewBox="0 0 16 16">
      <path d="M3 8h10M10 5l3 3-3 3" stroke="currentColor" stroke-width="1.3" stroke-linecap="round" stroke-linejoin="round"/>
    </symbol>
    <symbol id="i-warning" viewBox="0 0 16 16">
      <path d="m8 2 6 11H2L8 2zM8 6v3.5M8 11.4v.05" fill="none" stroke="currentColor" stroke-width="1.4" stroke-linejoin="round" stroke-linecap="round"/>
    </symbol>
    <symbol id="i-plus" viewBox="0 0 16 16">
      <path d="M8 3v10M3 8h10" stroke="currentColor" stroke-width="1.4" stroke-linecap="round"/>
    </symbol>
    <symbol id="i-dim" viewBox="0 0 16 16">
      <path d="M2 5v6M14 5v6M2 8h12M3 7l-1 1 1 1M13 7l1 1-1 1" fill="none" stroke="currentColor" stroke-width="1.3" stroke-linecap="round" stroke-linejoin="round"/>
    </symbol>
    <symbol id="i-edit-line" viewBox="0 0 16 16">
      <path d="M2 12 L 10 4" fill="none" stroke="currentColor" stroke-width="1.4" stroke-linecap="round"/>
      <rect x="0.5" y="10.5" width="3" height="3" fill="currentColor"/>
      <rect x="8.5" y="2.5" width="3" height="3" fill="currentColor"/>
      <path d="M13 7l1.5 1.5L11 12l-2 .5.5-2L13 7z" fill="none" stroke="currentColor" stroke-width="1.2" stroke-linejoin="round"/>
    </symbol>
    <symbol id="i-hole-add" viewBox="0 0 16 16">
      <circle cx="7" cy="9" r="3.5" fill="none" stroke="currentColor" stroke-width="1.3"/>
      <path d="M12 3v4M10 5h4" stroke="currentColor" stroke-width="1.3" stroke-linecap="round"/>
    </symbol>
    <symbol id="i-note" viewBox="0 0 16 16">
      <path d="M3 2h7l3 3v9H3z" fill="none" stroke="currentColor" stroke-width="1.3" stroke-linejoin="round"/>
      <path d="M10 2v3h3M5 8h6M5 11h4" stroke="currentColor" stroke-width="1.2" stroke-linecap="round"/>
    </symbol>
    <symbol id="i-bridge" viewBox="0 0 16 16">
      <path d="M1 9c0-2 2-4 3-4M15 9c0-2-2-4-3-4M5 5h6M1 9v3M15 9v3M3 12h2M11 12h2" fill="none" stroke="currentColor" stroke-width="1.3" stroke-linecap="round" stroke-linejoin="round"/>
    </symbol>
    <symbol id="i-nest" viewBox="0 0 16 16">
      <rect x="1.5" y="1.5" width="13" height="13" fill="none" stroke="currentColor" stroke-width="1.2"/>
      <rect x="3" y="3" width="4" height="5" fill="none" stroke="currentColor" stroke-width="1"/>
      <rect x="8" y="3" width="5" height="3" fill="none" stroke="currentColor" stroke-width="1"/>
      <rect x="3" y="9" width="3" height="4" fill="none" stroke="currentColor" stroke-width="1"/>
      <rect x="7" y="7" width="6" height="6" fill="none" stroke="currentColor" stroke-width="1"/>
    </symbol>
  </defs>
</svg>
